<svg t="1636700993177" class="icon" viewBox="0 0 1024 1024" version="1.1" xmlns="http://www.w3.org/2000/svg" p-id="2720" width="200" height="200"><path d="M867.2 492.8l-336-336c-11.2-11.2-28.8-19.2-44.8-17.6L208 148.8C176 150.4 150.4 176 148.8 208l-9.6 278.4c0 16 6.4 33.6 17.6 44.8l336 336c11.2 11.2 27.2 17.6 43.2 17.6 16 0 30.4-6.4 43.2-17.6l288-288c24-24 24-62.4 0-86.4zM384 384c-22.4 22.4-57.6 22.4-80 0s-22.4-57.6 0-80 57.6-22.4 80 0c20.8 22.4 20.8 57.6 0 80z" p-id="2721" fill="#2c2c2c"></path></svg>