<svg t="1636974620777" class="icon" viewBox="0 0 1024 1024" version="1.1" xmlns="http://www.w3.org/2000/svg" p-id="6392" width="200" height="200"><path d="M768 355.328H477.184c-18.432 0-34.816-10.24-45.056-25.6l-45.056-77.824C378.88 235.52 362.496 225.28 343.04 225.28H256c-28.672 0-51.2 23.552-51.2 52.224v468.992c0 28.672 22.528 52.224 51.2 52.224h512c28.672 0 51.2-23.552 51.2-52.224V407.552c0-28.672-22.528-52.224-51.2-52.224z m0-104.448H459.776c-5.12 0-8.192 5.12-5.12 9.216l20.48 34.816c2.048 5.12 6.144 8.192 11.264 8.192H768c14.336 0 28.672 3.072 39.936 8.192 5.12 3.072 11.264-1.024 11.264-8.192 0-28.672-22.528-52.224-51.2-52.224z" p-id="6393" fill="#2c2c2c"></path></svg>