<svg t="1636804696825" class="icon" viewBox="0 0 1024 1024" version="1.1" xmlns="http://www.w3.org/2000/svg" p-id="3319" width="200" height="200"><path d="M983.8 312.7C958 251.7 921 197 874 150c-47-47-101.7-84-162.7-109.7C648.2 13.5 581.1 0 512 0S375.8 13.5 312.7 40.3C251.7 66 197 103 150 150c-47 47-84 101.7-109.7 162.7C13.5 375.8 0 442.9 0 512s13.5 136.2 40.3 199.3C66 772.3 103 827 150 874c47 47 101.8 83.9 162.7 109.7 63.1 26.7 130.2 40.3 199.3 40.3s136.2-13.5 199.3-40.3C772.3 958 827 921 874 874c47-47 83.9-101.8 109.7-162.7 26.7-63.1 40.3-130.2 40.3-199.3s-13.5-136.2-40.2-199.3zM724 635H390.7l23.1 21.8c14.5 13.6 15.1 36.4 1.5 50.9-7.1 7.5-16.6 11.3-26.2 11.3-8.9 0-17.7-3.2-24.7-9.8l-89.1-84c-10.7-10.1-14.2-25.8-8.8-39.5C272 572 285.2 563 300 563h424c19.9 0 36 16.1 36 36s-16.1 36-36 36z m33.5-196.7C752 452 738.8 461 724 461H300c-19.9 0-36-16.1-36-36s16.1-36 36-36h333.3l-23.1-21.8c-14.5-13.6-15.1-36.4-1.5-50.9s36.4-15.1 50.9-1.5l89.1 84c10.7 10.1 14.2 25.8 8.8 39.5z" p-id="3320" fill="#2c2c2c"></path></svg>