<svg t="1636804389536" class="icon" viewBox="0 0 1024 1024" version="1.1" xmlns="http://www.w3.org/2000/svg" p-id="1220" width="200" height="200"><path d="M735.786833 62.98859 288.310382 62.98859c-123.567293 0-223.738737 100.164281-223.738737 223.738737l0 447.476451c0 123.555014 100.17042 223.751017 223.738737 223.751017l447.476451 0c123.561154 0 223.738737-100.196003 223.738737-223.751017L959.52557 286.727327C959.52557 163.15287 859.347986 62.98859 735.786833 62.98859zM831.694159 702.260252c0 70.612221-57.238632 127.850853-127.850853 127.850853L320.292793 830.111105c-70.612221 0-127.850853-57.238632-127.850853-127.850853L192.44194 318.708715c0-70.612221 57.238632-127.850853 127.850853-127.850853l383.551536 0c70.612221 0 127.850853 57.238632 127.850853 127.850853L831.695183 702.260252z" p-id="1221" fill="#e6e6e6"></path></svg>