<svg t="1637049843718" class="icon" viewBox="0 0 1024 1024" version="1.1" xmlns="http://www.w3.org/2000/svg" p-id="4539" width="200" height="200"><path d="M845.88544 116.43904 178.11456 116.43904c-34.21184 0-62.0544 27.83232-62.0544 62.04416l0 667.0336c0 34.21184 27.84256 62.0544 62.0544 62.0544l667.77088 0c34.21184 0 62.0544-27.84256 62.0544-62.0544L907.93984 178.4832C907.93984 144.26112 880.09728 116.43904 845.88544 116.43904zM803.81952 187.06432c14.6944 0 26.59328 11.90912 26.59328 26.59328 0 14.6944-11.89888 26.59328-26.59328 26.59328s-26.59328-11.90912-26.59328-26.59328C777.22624 198.97344 789.12512 187.06432 803.81952 187.06432zM708.52608 187.06432c14.6944 0 26.59328 11.90912 26.59328 26.59328 0 14.6944-11.89888 26.59328-26.59328 26.59328s-26.59328-11.90912-26.59328-26.59328C681.9328 198.97344 693.83168 187.06432 708.52608 187.06432zM559.79008 836.64896 186.97216 836.64896 186.97216 306.26816l372.81792 0L559.79008 836.64896zM837.02784 836.64896 587.10016 836.64896 587.10016 306.26816l249.92768 0L837.02784 836.64896zM808.96 460.8 619.52 460.8 619.52 343.04 808.96 343.04 808.96 460.8zM808.96 624.64 619.52 624.64 619.52 506.88 808.96 506.88 808.96 624.64zM808.96 791.04 619.52 791.04l0-117.76L808.96 673.28 808.96 791.04z" p-id="4540" fill="#e6e6e6"></path></svg>